HIERARCHY
ROOT Hips
{
	OFFSET 0.000000 0.000000 0.000000 
	CHANNELS 6 Xposition Yposition Zposition Zrotation Yrotation Xrotation
	JOINT LeftUpLeg
	{
		OFFSET 1.363060 -1.794630 0.839290 
		CHANNELS 3 Zrotation Yrotation Xrotation
		JOINT LeftLeg
		{
			OFFSET 2.448110 -6.726130 0.000000 
			CHANNELS 3 Zrotation Yrotation Xrotation
			JOINT LeftFoot
			{
				OFFSET 2.562200 -7.039590 0.000000 
				CHANNELS 3 Zrotation Yrotation Xrotation
				JOINT LeftToeBase
				{
					OFFSET 0.157640 -0.433110 2.322550 
					CHANNELS 3 Zrotation Yrotation Xrotation
					End Site
					{
						OFFSET 0.000000 0.000000 0.000000 
					}
				}
			}
		}
	}
	JOINT RightUpLeg
	{
		OFFSET -1.305520 -1.794630 0.839290 
		CHANNELS 3 Zrotation Yrotation Xrotation
		JOINT RightLeg
		{
			OFFSET -2.542530 -6.985550 0.000000 
			CHANNELS 3 Zrotation Yrotation Xrotation
			JOINT RightFoot
			{
				OFFSET -2.568260 -7.056230 0.000000 
				CHANNELS 3 Zrotation Yrotation Xrotation
				JOINT RightToeBase
				{
					OFFSET -0.164730 -0.452590 2.363150 
					CHANNELS 3 Zrotation Yrotation Xrotation
					End Site
					{
						OFFSET 0.000000 0.000000 0.000000 
					}
				}
			}
		}
	}
	JOINT Spine
	{
		OFFSET 0.028270 2.035590 -0.193380 
		CHANNELS 3 Zrotation Yrotation Xrotation
		JOINT Spine1
		{
			OFFSET 0.056720 2.048850 -0.042750 
			CHANNELS 3 Zrotation Yrotation Xrotation
			JOINT Neck1
			{
				OFFSET -0.054170 1.746240 0.172020 
				CHANNELS 3 Zrotation Yrotation Xrotation
				JOINT Head
				{
					OFFSET 0.104070 1.761360 -0.123970 
					CHANNELS 3 Zrotation Yrotation Xrotation
					End Site
					{
						OFFSET 0.000000 0.000000 0.000000 
					}
				}
			}
			JOINT LeftArm
			{
				OFFSET 3.362410 1.200890 -0.311210 
				CHANNELS 3 Zrotation Yrotation Xrotation
				JOINT LeftForeArm
				{
					OFFSET 4.983000 -0.000000 -0.000000 
					CHANNELS 3 Zrotation Yrotation Xrotation
					JOINT LeftHand
					{
						OFFSET 3.483560 -0.000000 -0.000000 
						CHANNELS 3 Zrotation Yrotation Xrotation
						JOINT LeftHandIndex1
						{
							OFFSET 0.715260 -0.000000 -0.000000 
							CHANNELS 3 Zrotation Yrotation Xrotation
							End Site
							{
								OFFSET 0.000000 0.000000 0.000000 
							}
						}
					}
				}
			}
			JOINT RightArm
			{
				OFFSET -3.136600 1.374050 -0.404650 
				CHANNELS 3 Zrotation Yrotation Xrotation
				JOINT RightForeArm
				{
					OFFSET -5.241900 -0.000000 -0.000000 
					CHANNELS 3 Zrotation Yrotation Xrotation
					JOINT RightHand
					{
						OFFSET -3.444170 -0.000000 -0.000000 
						CHANNELS 3 Zrotation Yrotation Xrotation
						JOINT RightHandIndex1
						{
							OFFSET -0.622530 -0.000000 -0.000000 
							CHANNELS 3 Zrotation Yrotation Xrotation
							End Site
							{
								OFFSET 0.000000 0.000000 0.000000 
							}
						}
					}
				}
			}
		}
	}
}
MOTION
Frames: 13
Frame Time: 0.041667
7.688910 17.505385 27.936754 -29.199925 -85.634679 44.551786 -6.996254 -1.717315 0.599584 -4.703267 -0.800145 3.465246 -0.096463 7.058565 24.666664 0.000000 0.000000 0.000000 22.588869 25.243510 -8.978731 4.414718 -10.104967 19.310257 6.688506 -22.307845 -3.521265 -0.471900 4.405900 -12.221500 0.852847 1.392734 -5.092519 -0.435946 0.707618 5.773785 -1.352583 10.643453 9.357806 -3.904400 4.716900 9.599600 -39.203074 3.353982 -17.071260 142.630109 -43.469468 -109.608145 4.926278 -5.279766 -26.616357 -7.125000 0.000000 0.000000 47.015602 -4.768675 -16.703446 -155.951921 26.949446 -114.178512 -3.443546 0.971823 1.895025 7.125000 0.000000 0.000000 
7.679217 17.504605 27.935639 -28.483081 -85.583207 43.864987 -6.990811 -1.719431 0.607009 -4.703045 -0.804276 3.467572 -0.096633 7.054384 24.668222 0.000000 0.000000 0.000000 22.593451 25.281382 -8.968005 4.412867 -10.111654 19.319312 6.715591 -22.378081 -3.591348 -0.475100 4.420500 -12.262800 0.868311 1.339106 -5.102740 -0.349861 0.681657 5.765899 -1.492100 10.690517 9.324702 -4.008400 4.726600 9.635200 -38.437177 3.311034 -18.272497 142.553395 -43.572520 -109.592154 5.090179 -5.330221 -26.553060 -7.125000 0.000000 0.000000 45.684665 -4.227546 -18.336594 -155.836283 27.028806 -114.156640 -3.486277 0.979824 2.190060 7.125000 0.000000 0.000000 
7.669302 17.505162 27.935194 -28.062442 -85.552519 43.480782 -6.987633 -1.720664 0.611348 -4.702917 -0.806700 3.468932 -0.096702 7.051933 24.669138 0.000000 0.000000 0.000000 22.580737 25.261486 -8.980372 4.416671 -10.110603 19.322614 6.688849 -22.296176 -3.676944 -0.445000 4.280200 -11.866200 0.872130 1.315609 -5.108155 -0.264067 0.670141 5.756192 -1.458516 10.726031 9.230480 -3.950700 4.737800 9.556400 -37.683157 3.252598 -19.640513 142.396877 -43.750760 -109.543180 5.192702 -5.357113 -26.556957 -7.125000 0.000000 0.000000 44.505166 -3.730342 -19.884750 -155.724595 27.113680 -114.137337 -3.522103 0.979217 2.520056 7.125000 0.000000 0.000000 
7.660388 17.503936 27.936308 -27.291649 -85.485264 42.736320 -6.982200 -1.722841 0.618790 -4.702702 -0.810889 3.471269 -0.096621 7.047705 24.670704 0.000000 0.000000 0.000000 22.586037 25.287878 -8.961178 4.414630 -10.111948 19.318813 6.733139 -22.414054 -3.717680 -0.458400 4.343100 -12.043900 0.873697 1.263304 -5.109607 -0.241536 0.641736 5.760909 -1.446608 10.803802 9.111898 -3.912500 4.769700 9.492000 -36.901602 3.319683 -21.052986 142.220863 -43.977326 -109.485306 5.328419 -5.461297 -26.098984 -7.125000 0.000000 0.000000 43.330208 -3.208335 -21.271019 -155.627420 27.187156 -114.109908 -3.571895 0.951828 2.821243 7.125000 0.000000 0.000000 
7.651252 17.503268 27.936308 -26.698124 -85.429768 42.170841 -6.978046 -1.724506 0.624482 -4.702538 -0.814103 3.473059 -0.096530 7.044462 24.671906 0.000000 0.000000 0.000000 22.591284 25.301206 -8.946896 4.415238 -10.109819 19.312557 6.754139 -22.466744 -3.772870 -0.456700 4.335400 -12.022200 0.875129 1.227900 -5.112660 -0.187265 0.623330 5.746218 -1.395908 10.869991 8.986093 -3.834300 4.796500 9.394600 -36.122393 3.360680 -22.451615 142.005885 -44.230034 -109.418013 5.440935 -5.579539 -25.764499 -7.125000 0.000000 0.000000 42.132526 -2.735021 -22.718000 -155.521541 27.277692 -114.081752 -3.619334 0.926054 3.102521 7.125000 0.000000 0.000000 
7.642562 17.502599 27.936419 -26.148551 -85.372357 41.646283 -6.974216 -1.726050 0.629735 -4.702389 -0.817081 3.474713 -0.096390 7.041458 24.673017 0.000000 0.000000 0.000000 22.601221 25.312642 -8.929863 4.415806 -10.107275 19.306275 6.776306 -22.523061 -3.825575 -0.455900 4.331600 -12.011400 0.875143 1.197242 -5.115415 -0.133431 0.607985 5.719271 -1.315726 10.935278 8.840152 -3.726700 4.824300 9.269300 -35.352463 3.440372 -23.870726 141.749758 -44.526869 -109.336059 5.546210 -5.734399 -25.320995 -7.125000 0.000000 0.000000 40.936716 -2.296091 -24.106435 -155.415544 27.375084 -114.049819 -3.668672 0.886418 3.351429 7.125000 0.000000 0.000000 
7.634095 17.501931 27.936531 -25.614558 -85.311760 41.134687 -6.970523 -1.727548 0.634803 -4.702246 -0.819964 3.476310 -0.096212 7.038551 24.674092 0.000000 0.000000 0.000000 22.614874 25.324820 -8.909091 4.416265 -10.104077 19.299506 6.800731 -22.585692 -3.875889 -0.457000 4.336600 -12.025600 0.876257 1.166307 -5.118341 -0.079489 0.593692 5.682723 -1.240667 10.995978 8.685337 -3.623300 4.850100 9.136300 -34.601957 3.568107 -25.292873 141.467291 -44.863934 -109.233442 5.657639 -5.877929 -24.766592 -7.125000 0.000000 0.000000 39.727727 -1.887804 -25.431929 -155.304412 27.484864 -114.011848 -3.719593 0.833439 3.550832 7.125000 0.000000 0.000000 
7.625850 17.501151 27.936642 -25.106416 -85.252110 40.646289 -6.967017 -1.728975 0.639617 -4.702111 -0.822709 3.477830 -0.096014 7.035782 24.675113 0.000000 0.000000 0.000000 22.628815 25.334710 -8.887024 4.416523 -10.100701 19.293629 6.822875 -22.641890 -3.925438 -0.457900 4.341000 -12.038200 0.879316 1.135533 -5.121651 -0.026561 0.580924 5.637100 -1.192751 11.047570 8.527850 -3.545900 4.871400 9.007300 -33.875621 3.744881 -26.703422 141.163230 -45.239968 -109.106233 5.782829 -5.987660 -24.117995 -7.125000 0.000000 0.000000 38.500959 -1.510117 -26.693026 -155.180652 27.615667 -113.965747 -3.770297 0.769121 3.670011 7.125000 0.000000 0.000000 
7.617828 17.500483 27.936865 -24.628271 -85.196130 40.184349 -6.963748 -1.730310 0.644105 -4.701986 -0.825275 3.479248 -0.095803 7.033194 24.676067 0.000000 0.000000 0.000000 22.642280 25.335429 -8.865687 4.416465 -10.097755 19.291424 6.840175 -22.684548 -3.971706 -0.458800 4.345100 -12.049600 0.884276 1.103861 -5.124717 0.016754 0.569100 5.588632 -1.188009 11.092719 8.373412 -3.511400 4.889000 8.895100 -33.170620 3.966435 -28.117847 140.833694 -45.654494 -108.956987 5.908185 -6.068646 -23.494728 -7.125000 0.000000 0.000000 37.254442 -1.155760 -27.897616 -155.038968 27.773462 -113.909931 -3.818526 0.692687 3.646051 7.125000 0.000000 0.000000 
7.609806 17.499814 27.937199 -24.152317 -85.144391 39.721230 -6.960485 -1.731640 0.648576 -4.701861 -0.827828 3.480663 -0.095612 7.030616 24.677017 0.000000 0.000000 0.000000 22.653525 25.333539 -8.844592 4.415741 -10.096246 19.294373 6.854093 -22.717039 -4.020588 -0.459100 4.346600 -12.053800 0.891639 1.071142 -5.127994 0.028024 0.557478 5.547140 -1.315202 11.114681 8.251216 -3.606000 4.891800 8.856500 -32.482182 4.229228 -29.490218 140.504729 -46.091927 -108.782660 6.057141 -6.068398 -22.837172 -7.125000 0.000000 0.000000 35.997828 -0.820152 -29.032774 -154.881129 27.955786 -113.844513 -3.862961 0.604400 3.415545 7.125000 0.000000 0.000000 
7.602007 17.499034 27.937422 -23.665870 -85.099327 39.243052 -6.957236 -1.732968 0.653033 -4.701736 -0.830377 3.482073 -0.095405 7.028043 24.677965 0.000000 0.000000 0.000000 22.659272 25.307932 -8.831999 4.414178 -10.096843 19.305365 6.857413 -22.719520 -4.058781 -0.460200 4.351600 -12.067900 0.900652 1.036393 -5.131051 0.037999 0.545502 5.503811 -1.445608 11.138099 8.136974 -3.707500 4.895200 8.827800 -31.821962 4.516331 -30.854880 140.147329 -46.561016 -108.589141 6.192365 -6.054422 -22.332940 -7.125000 0.000000 0.000000 34.733050 -0.508393 -30.088854 -154.708840 28.158617 -113.772996 -3.900937 0.508146 2.898067 7.125000 0.000000 0.000000 
7.594431 17.498254 27.937645 -23.134197 -85.059019 38.718358 -6.953856 -1.734360 0.657673 -4.701607 -0.833032 3.483540 -0.095169 7.025365 24.678951 0.000000 0.000000 0.000000 22.660327 25.292489 -8.819617 4.411776 -10.099918 19.321403 6.861372 -22.723576 -4.105530 -0.459100 4.346400 -12.053200 0.910672 1.000727 -5.133020 0.048387 0.532868 5.466115 -1.566650 11.157475 8.032390 -3.803300 4.896300 8.807000 -31.186225 4.812098 -32.202703 139.761283 -47.058377 -108.376183 6.315561 -6.027785 -22.031480 -7.125000 0.000000 0.000000 33.451646 -0.219732 -31.072714 -154.522092 28.382481 -113.696456 -3.930488 0.403370 1.984837 7.125000 0.000000 0.000000 
7.587189 17.497586 27.937868 -22.541028 -85.023062 38.132140 -6.950240 -1.735860 0.662641 -4.701470 -0.835882 3.485112 -0.094885 7.022494 24.680008 0.000000 0.000000 0.000000 22.655117 25.285629 -8.809066 4.408678 -10.105173 19.340827 6.866597 -22.730642 -4.154288 -0.457600 4.339500 -12.033700 0.921291 0.964562 -5.134670 0.074267 0.519572 5.430768 -1.622969 11.169851 7.940296 -3.842000 4.895200 8.777500 -30.573355 5.111464 -33.521269 139.340311 -47.584282 -108.142323 6.425116 -5.994622 -21.965420 -7.125000 0.000000 0.000000 32.160032 0.037344 -31.967527 -154.336157 28.607273 -113.621585 -3.949345 0.286665 0.580771 7.125000 0.000000 0.000000 
